# xmcd
#
# Track frame offsets:
# 150
# 11855
# 29277
# 42422
# 53857
# 71332
# 82657
# 95275
# 111460
# 124260
# 134377
# 145950
# 156635
# 166517
# 175320
# 186317
#
# Disc length: 2652 seconds
#
#
# Revision: 1
# Processed by: cddbd v1.5.2PL0 Copyright (c) Steve Scherf et al.
# Submitted via: FreeRIP 2.96 
#
DISCID=dd0a5a10
DTITLE=John Lee Hooker - Burnin'
DYEAR=1961
DGENRE=Blues
TTITLE0=Boom Boom
TTITLE1=Process
TTITLE2=Lost A Good Girl
TTITLE3=A New Leaf
TTITLE4=Blues Before Sunrise
TTITLE5=Let's Make It
TTITLE6=I Got A Letter
TTITLE7=Thelma
TTITLE8=Drug Store Woman
TTITLE9=Keep Your Hands To Your Self
TTITLE10=What Do You Say
TTITLE11=Old Time Shimmy
TTITLE12=Onions
TTITLE13=You Know I Love You
TTITLE14=Send Me Your Pillow
TTITLE15=Take A Look At Yourself
EXTD=
EXTT0=
EXTT1=
EXTT2=
EXTT3=
EXTT4=
EXTT5=
EXTT6=
EXTT7=
EXTT8=
EXTT9=
EXTT10=
EXTT11=
EXTT12=
EXTT13=
EXTT14=
EXTT15=
PLAYORDER=
